<svg xmlns="http://www.w3.org/2000/svg" fill="none" viewBox="0 0 108 33" height="33" width="108">
<g clip-path="url(#clip0_207_17)">
<path fill="#0B0B0B" d="M67.0036 25.6681C60.7276 30.2886 51.6308 32.7539 43.7987 32.7539C32.8167 32.7539 22.9302 28.6968 15.4506 21.9492C14.8629 21.4186 15.3895 20.6954 16.0947 21.1086C24.1666 25.7996 34.1471 28.6217 44.4568 28.6217C51.4098 28.6217 59.0587 27.1848 66.0916 24.2031C67.1541 23.7523 68.0426 24.898 67.0036 25.6681Z" clip-rule="evenodd" fill-rule="evenodd"></path>
<path fill="#0B0B0B" d="M69.6096 22.685C68.8104 21.6613 64.3067 22.2013 62.2852 22.4408C61.6693 22.5159 61.5753 21.9806 62.13 21.5956C65.717 19.074 71.6029 19.8019 72.2893 20.6471C72.9756 21.497 72.1106 27.39 68.7399 30.2027C68.2227 30.6347 67.7291 30.4046 67.9595 29.8318C68.7164 27.9441 70.4135 23.7133 69.6096 22.685Z" clip-rule="evenodd" fill-rule="evenodd"></path>
<path fill="#0B0B0B" d="M62.428 3.79556V1.34443C62.428 0.973478 62.7101 0.724609 63.0485 0.724609H74.0352C74.3878 0.724609 74.6698 0.978175 74.6698 1.34443V3.44339C74.6651 3.79556 74.369 4.25574 73.8424 4.98356L68.1493 13.1023C70.2648 13.0507 72.4979 13.3653 74.416 14.4453C74.8485 14.6895 74.966 15.0463 74.9989 15.3985V18.014C74.9989 18.3709 74.604 18.7888 74.1903 18.5728C70.8102 16.8025 66.3206 16.61 62.5831 18.5916C62.2023 18.7982 61.8027 18.3849 61.8027 18.0281V15.5441C61.8027 15.1449 61.8074 14.4641 62.207 13.8583L68.8028 4.41069H63.0626C62.7101 4.41069 62.428 4.16183 62.428 3.79556Z" clip-rule="evenodd" fill-rule="evenodd"></path>
<path fill="#0B0B0B" d="M22.3556 19.0914H19.0131C18.6934 19.0679 18.4395 18.8284 18.416 18.5232V1.38881C18.416 1.04603 18.7028 0.773675 19.0601 0.773675H22.177C22.5013 0.787753 22.7599 1.03663 22.7834 1.34654V3.58637H22.8445C23.6578 1.42167 25.1857 0.412109 27.2448 0.412109C29.3368 0.412109 30.6438 1.42167 31.584 3.58637C32.3926 1.42167 34.2308 0.412109 36.2005 0.412109C37.6015 0.412109 39.1341 0.989674 40.0696 2.28567C41.1274 3.72724 40.9111 5.8215 40.9111 7.6575L40.9064 18.4716C40.9064 18.8144 40.6196 19.0914 40.2624 19.0914H36.9245C36.5907 19.0679 36.3228 18.8003 36.3228 18.4716V9.39019C36.3228 8.66706 36.3886 6.86393 36.2288 6.17837C35.9796 5.02793 35.2321 4.70393 34.2637 4.70393C33.4551 4.70393 32.6089 5.24393 32.2657 6.10793C31.9225 6.97193 31.9554 8.41819 31.9554 9.39019V18.4716C31.9554 18.8144 31.6686 19.0914 31.3113 19.0914H27.9735C27.635 19.0679 27.3717 18.8003 27.3717 18.4716L27.3671 9.39019C27.3671 7.47906 27.682 4.66637 25.3079 4.66637C22.9056 4.66637 22.9997 7.40862 22.9997 9.39019V18.4716C22.9997 18.8144 22.7129 19.0914 22.3556 19.0914Z" clip-rule="evenodd" fill-rule="evenodd"></path>
<path fill="#0B0B0B" d="M84.1332 0.412109C89.0929 0.412109 91.7773 4.66637 91.7773 10.0758C91.7773 15.302 88.8109 19.4483 84.1332 19.4483C79.2628 19.4483 76.6113 15.194 76.6113 9.89262C76.6113 4.55837 79.2957 0.412109 84.1332 0.412109ZM84.1614 3.91037C81.698 3.91037 81.5429 7.26306 81.5429 9.35263C81.5429 11.4469 81.5099 15.9171 84.1332 15.9171C86.7235 15.9171 86.8458 12.3109 86.8458 10.1133C86.8458 8.66706 86.7847 6.93906 86.3475 5.56793C85.9714 4.37524 85.2239 3.91037 84.1614 3.91037Z" clip-rule="evenodd" fill-rule="evenodd"></path>
<path fill="#0B0B0B" d="M98.2025 19.0914H94.874C94.5402 19.0679 94.2723 18.8003 94.2723 18.4716L94.2676 1.33246C94.2958 1.01785 94.5732 0.773675 94.9116 0.773675H98.0097C98.3012 0.787753 98.5409 0.98498 98.6068 1.25263V3.8728H98.6679C99.6034 1.52967 100.915 0.412109 103.223 0.412109C104.723 0.412109 106.185 0.952111 107.125 2.43124C108 3.80237 108 6.10793 108 7.76549V18.5514C107.962 18.8519 107.685 19.0914 107.356 19.0914H104.004C103.698 19.0679 103.444 18.8425 103.411 18.5514V9.24463C103.411 7.37106 103.628 4.6288 101.319 4.6288C100.506 4.6288 99.7585 5.1735 99.3871 5.99993C98.917 7.04706 98.8559 8.0895 98.8559 9.24463V18.4716C98.8512 18.8144 98.5597 19.0914 98.2025 19.0914Z" clip-rule="evenodd" fill-rule="evenodd"></path>
<path fill="#0B0B0B" d="M53.6712 10.9072C53.6712 12.2079 53.7041 13.2926 53.046 14.4477C52.5147 15.3868 51.6685 15.9644 50.733 15.9644C49.4496 15.9644 48.6974 14.9877 48.6974 13.5461C48.6974 10.7006 51.2501 10.184 53.6712 10.184V10.9072ZM57.042 19.0447C56.821 19.2419 56.5013 19.256 56.2522 19.1246C55.1427 18.2042 54.9405 17.7769 54.3341 16.8988C52.5006 18.7677 51.1984 19.3265 48.8243 19.3265C46.0083 19.3265 43.8223 17.5938 43.8223 14.1237C43.8223 11.4143 45.289 9.56891 47.3858 8.66735C49.2004 7.86908 51.7343 7.72822 53.6712 7.50752V7.07552C53.6712 6.28195 53.7323 5.34282 53.2622 4.65726C52.8579 4.04213 52.0775 3.78857 51.3864 3.78857C50.1124 3.78857 48.9795 4.44126 48.7021 5.79361C48.6457 6.09413 48.4247 6.38996 48.1191 6.40404L44.88 6.05656C44.6074 5.99552 44.3018 5.77482 44.3817 5.35692C45.1245 1.43135 48.6786 0.248047 51.8566 0.248047C53.4832 0.248047 55.6081 0.680047 56.8915 1.91031C58.5181 3.427 58.363 5.45083 58.363 7.65309V12.8559C58.363 14.4195 59.0117 15.1051 59.6229 15.9503C59.8345 16.2508 59.8815 16.6124 59.6088 16.8378C58.9271 17.4059 57.7142 18.4625 57.0466 19.0541L57.042 19.0447Z" clip-rule="evenodd" fill-rule="evenodd"></path>
<path fill="#0B0B0B" d="M9.85091 10.9072C9.85091 12.2079 9.88381 13.2926 9.22565 14.4477C8.69442 15.3868 7.85291 15.9644 6.91267 15.9644C5.62925 15.9644 4.88177 14.9877 4.88177 13.5461C4.88177 10.7006 7.4345 10.184 9.85091 10.184V10.9072ZM13.2216 19.0447C13.0007 19.2419 12.681 19.256 12.4318 19.1246C11.3224 18.2042 11.1249 17.7769 10.5138 16.8988C8.68031 18.7677 7.38279 19.3265 5.004 19.3265C2.1927 19.3265 0.00195312 17.5938 0.00195312 14.1237C0.00195312 11.4143 1.47342 9.56891 3.56544 8.66735C5.38009 7.86908 7.91402 7.72822 9.85091 7.50752V7.07552C9.85091 6.28195 9.91202 5.34282 9.4466 4.65726C9.0376 4.04213 8.25721 3.78857 7.57084 3.78857C6.29682 3.78857 5.15914 4.44126 4.88177 5.79361C4.82535 6.09413 4.6044 6.38996 4.30352 6.40404L1.05972 6.05656C0.787048 5.99552 0.486173 5.77482 0.561392 5.35692C1.30888 1.43135 4.85826 0.248047 8.03625 0.248047C9.66286 0.248047 11.7878 0.680047 13.0712 1.91031C14.6978 3.427 14.5427 5.45083 14.5427 7.65309V12.8559C14.5427 14.4195 15.1914 15.1051 15.8026 15.9503C16.0188 16.2508 16.0658 16.6124 15.7932 16.8378C15.1115 17.4059 13.8986 18.4625 13.231 19.0541L13.2216 19.0447Z" clip-rule="evenodd" fill-rule="evenodd"></path>
</g>
<defs>
<clipPath id="clip0_207_17">
<rect fill="white" height="33" width="108"></rect>
</clipPath>
</defs>
</svg>
