<svg xmlns="http://www.w3.org/2000/svg" fill="none" viewBox="0 0 67 40" height="40" width="67">
<path fill="black" d="M18.8504 14.5274C18.8504 15.3506 18.9394 16.018 19.0951 16.5074C19.2731 16.9969 19.4955 17.5308 19.807 18.1092C19.9182 18.2872 19.9627 18.4652 19.9627 18.6209C19.9627 18.8434 19.8292 19.0659 19.54 19.2883L18.1385 20.2227C17.9382 20.3562 17.738 20.4229 17.56 20.4229C17.3376 20.4229 17.1151 20.3117 16.8926 20.1115C16.5811 19.7778 16.3142 19.4218 16.0917 19.0659C15.8692 18.6877 15.6468 18.265 15.402 17.7533C13.6668 19.8 11.4865 20.8234 8.86136 20.8234C6.9926 20.8234 5.50203 20.2895 4.41192 19.2216C3.32181 18.1537 2.76562 16.7299 2.76562 14.9501C2.76562 13.0591 3.43304 11.5241 4.79012 10.3672C6.1472 9.21035 7.94923 8.63192 10.2407 8.63192C10.9971 8.63192 11.7757 8.69866 12.5989 8.8099C13.422 8.92114 14.2674 9.09911 15.1573 9.29934V7.67529C15.1573 5.9845 14.8014 4.8054 14.1117 4.11574C13.3998 3.42607 12.1984 3.09236 10.4854 3.09236C9.70676 3.09236 8.90586 3.18135 8.08271 3.38158C7.25956 3.5818 6.45866 3.82652 5.68001 4.13798C5.32406 4.29371 5.05709 4.3827 4.90136 4.4272C4.74563 4.47169 4.63439 4.49394 4.5454 4.49394C4.23394 4.49394 4.07821 4.27147 4.07821 3.80427V2.71416C4.07821 2.35821 4.12271 2.09124 4.23394 1.93551C4.34518 1.77978 4.5454 1.62405 4.85686 1.46832C5.63552 1.06787 6.5699 0.734158 7.66001 0.467192C8.75013 0.177978 9.90698 0.0444944 11.1306 0.0444944C13.778 0.0444944 15.7135 0.645169 16.9594 1.84652C18.1829 3.04787 18.8059 4.87214 18.8059 7.31934V14.5274H18.8504ZM9.81799 17.909C10.5522 17.909 11.3086 17.7755 12.1095 17.5086C12.9104 17.2416 13.6223 16.7522 14.2229 16.0847C14.5789 15.662 14.8459 15.1949 14.9793 14.6609C15.1128 14.127 15.2018 13.4818 15.2018 12.7254V11.791C14.5567 11.6353 13.867 11.5018 13.1551 11.4128C12.4432 11.3238 11.7535 11.2793 11.0638 11.2793C9.57327 11.2793 8.48316 11.5686 7.749 12.1692C7.01484 12.7699 6.65889 13.6153 6.65889 14.7277C6.65889 15.7733 6.92585 16.5519 7.48203 17.0859C8.01597 17.642 8.79462 17.909 9.81799 17.909ZM27.6825 20.3117C27.2821 20.3117 27.0151 20.245 26.8371 20.0892C26.6591 19.9558 26.5034 19.6443 26.3699 19.2216L21.1418 2.0245C21.0083 1.57955 20.9416 1.29034 20.9416 1.13461C20.9416 0.778653 21.1196 0.578428 21.4755 0.578428H23.6558C24.0785 0.578428 24.3677 0.645169 24.5234 0.8009C24.7014 0.934383 24.8349 1.24584 24.9683 1.66854L28.7059 16.3962L32.1764 1.66854C32.2877 1.2236 32.4212 0.934383 32.5991 0.8009C32.7771 0.667417 33.0886 0.578428 33.489 0.578428H35.2688C35.6915 0.578428 35.9807 0.645169 36.1587 0.8009C36.3367 0.934383 36.4924 1.24584 36.5814 1.66854L40.0965 16.5742L43.9452 1.66854C44.0787 1.2236 44.2344 0.934383 44.3902 0.8009C44.5681 0.667417 44.8574 0.578428 45.2578 0.578428H47.3268C47.6828 0.578428 47.883 0.756405 47.883 1.13461C47.883 1.24584 47.8607 1.35708 47.8385 1.49056C47.8162 1.62405 47.7717 1.80202 47.6828 2.04674L42.3212 19.2438C42.1877 19.6888 42.032 19.978 41.854 20.1115C41.676 20.245 41.3868 20.334 41.0086 20.334H39.0953C38.6726 20.334 38.3834 20.2672 38.2054 20.1115C38.0275 19.9558 37.8717 19.6665 37.7827 19.2216L34.3344 4.87214L30.9084 19.1994C30.7971 19.6443 30.6636 19.9335 30.4857 20.0892C30.3077 20.245 29.9962 20.3117 29.5958 20.3117H27.6825ZM56.2702 20.9124C55.1133 20.9124 53.9565 20.7789 52.8441 20.5119C51.7317 20.245 50.8641 19.9558 50.2857 19.622C49.9297 19.4218 49.685 19.1994 49.596 18.9991C49.507 18.7989 49.4625 18.5764 49.4625 18.3762V17.2416C49.4625 16.7744 49.6405 16.5519 49.9742 16.5519C50.1077 16.5519 50.2412 16.5742 50.3747 16.6187C50.5082 16.6632 50.7084 16.7522 50.9309 16.8411C51.6873 17.1749 52.5104 17.4418 53.378 17.6198C54.2679 17.7978 55.1356 17.8868 56.0255 17.8868C57.427 17.8868 58.5172 17.642 59.2736 17.1526C60.03 16.6632 60.4304 15.9513 60.4304 15.0391C60.4304 14.4162 60.2302 13.9045 59.8297 13.4818C59.4293 13.0591 58.6729 12.6809 57.5828 12.325L54.3569 11.3238C52.7329 10.8121 51.5315 10.0557 50.7974 9.05462C50.0632 8.07574 49.685 6.98563 49.685 5.82877C49.685 4.89439 49.8852 4.07124 50.2857 3.35933C50.6861 2.64742 51.2201 2.0245 51.8875 1.53506C52.5549 1.02337 53.3113 0.645169 54.2012 0.378203C55.0911 0.111236 56.0255 0 57.0043 0C57.4938 0 58.0055 0.0222472 58.4949 0.0889889C59.0066 0.155731 59.4738 0.244719 59.941 0.333708C60.3859 0.444944 60.8086 0.55618 61.2091 0.689664C61.6095 0.823147 61.921 0.95663 62.1434 1.09011C62.4549 1.26809 62.6774 1.44607 62.8109 1.64629C62.9443 1.82427 63.0111 2.06899 63.0111 2.38045V3.42607C63.0111 3.89326 62.8331 4.13798 62.4994 4.13798C62.3214 4.13798 62.0322 4.04899 61.654 3.87102C60.3859 3.29259 58.9621 3.00337 57.3825 3.00337C56.1145 3.00337 55.1133 3.2036 54.4237 3.6263C53.734 4.04899 53.378 4.69416 53.378 5.6063C53.378 6.22922 53.6005 6.76316 54.0455 7.18585C54.4904 7.60855 55.3136 8.03125 56.4927 8.40945L59.6518 9.41057C61.2536 9.92226 62.4104 10.6342 63.1001 11.5463C63.7897 12.4584 64.1234 13.5041 64.1234 14.6609C64.1234 15.6175 63.9232 16.4852 63.545 17.2416C63.1446 17.998 62.6106 18.6654 61.921 19.1994C61.2313 19.7555 60.4082 20.156 59.4515 20.4452C58.4504 20.7567 57.4048 20.9124 56.2702 20.9124Z"></path>
<path fill="black" d="M60.4751 31.724C53.1557 37.1301 42.5216 40 33.3779 40C20.5636 40 9.01725 35.2613 0.296337 27.3858C-0.393327 26.7629 0.229595 25.9175 1.05274 26.4069C10.4856 31.8797 22.1209 35.1946 34.1566 35.1946C42.2768 35.1946 51.198 33.5038 59.4072 30.0332C60.6308 29.477 61.6764 30.8341 60.4751 31.724Z" clip-rule="evenodd" fill-rule="evenodd"></path>
<path fill="black" d="M63.5233 28.2531C62.5889 27.0517 57.3386 27.6747 54.9581 27.9639C54.2462 28.0529 54.135 27.4299 54.7802 26.9627C58.9626 24.0261 65.837 24.8715 66.6379 25.8504C67.4388 26.8515 66.4155 33.7259 62.5 37.0185C61.8993 37.5302 61.3208 37.2632 61.5878 36.5958C62.4777 34.3933 64.4577 29.4322 63.5233 28.2531Z" clip-rule="evenodd" fill-rule="evenodd"></path>
</svg>
