<svg xmlns="http://www.w3.org/2000/svg" fill="none" viewBox="0 0 102 36" height="36" width="102">
<mask height="36" width="102" y="0" x="0" maskUnits="userSpaceOnUse" style="mask-type:luminance" id="mask0_236_226">
<path fill="white" d="M101.119 0.0996094H0.880859V35.8987H101.119V0.0996094Z"></path>
</mask>
<g mask="url(#mask0_236_226)">
<path fill="#0B0B0B" d="M42.1564 26.9728H42.1119C42.1319 26.9728 42.1453 26.9951 42.1653 26.9973H42.1787L42.1564 26.9751V26.9728ZM42.1653 26.9973C41.9582 26.9996 41.437 27.1087 40.8868 27.1087C39.1493 27.1087 38.5479 26.3068 38.5479 25.2599V18.2856H42.0896C42.2901 18.2856 42.446 18.1074 42.446 17.8624V14.0756C42.446 13.8751 42.2678 13.6969 42.0896 13.6969H38.5479V8.99691C38.5479 8.81871 38.4365 8.70735 38.236 8.70735H33.4246C33.2242 8.70735 33.1128 8.81871 33.1128 8.99691V13.8306C33.1128 13.8306 30.6848 14.432 30.5289 14.4543C30.3507 14.4988 30.2393 14.6548 30.2393 14.833V17.8624C30.2393 18.1074 30.4175 18.2856 30.618 18.2856H33.0905V25.5918C33.0905 31.0269 36.8773 31.5838 39.4612 31.5838C40.6417 31.5838 42.0673 31.2051 42.2901 31.0937C42.4237 31.0492 42.4906 30.8932 42.4906 30.7373V27.3961C42.4936 27.3013 42.4624 27.2086 42.4027 27.135C42.343 27.0613 42.2587 27.0117 42.1653 26.9951V26.9973ZM94.9482 22.0946C94.9482 18.0628 93.3221 17.5282 91.6069 17.7064C90.2704 17.7955 89.2012 18.4638 89.2012 18.4638V26.3046C89.2012 26.3046 90.2927 27.0619 91.9188 27.1065C94.2131 27.1733 94.9482 26.3491 94.9482 22.0946ZM100.361 21.7382C100.361 29.3785 97.8885 31.5615 93.5671 31.5615C89.914 31.5615 87.9538 29.7127 87.9538 29.7127C87.9538 29.7127 87.8647 30.7373 87.7534 30.871C87.6865 31.0046 87.5752 31.0492 87.4415 31.0492H84.1448C83.9221 31.0492 83.7216 30.871 83.7216 30.6705L83.7661 5.92296C83.7661 5.72249 83.9443 5.54429 84.1448 5.54429H88.8894C89.0899 5.54429 89.2681 5.72249 89.2681 5.92296V14.3206C89.2681 14.3206 91.0946 13.1401 93.7676 13.1401L93.7453 13.0955C96.4183 13.0955 100.361 14.0979 100.361 21.7382ZM80.9372 13.6969H76.2595C76.0144 13.6969 75.8808 13.8751 75.8808 14.1202V26.2378C75.8808 26.2378 74.6557 27.1065 72.985 27.1065C71.3144 27.1065 70.8244 26.3491 70.8244 24.6785V14.0979C70.8244 13.8974 70.6462 13.7192 70.4457 13.7192H65.6788C65.4784 13.7192 65.3002 13.8974 65.3002 14.0979V25.4804C65.3002 30.3809 68.04 31.606 71.8045 31.606C74.9007 31.606 77.4178 29.8909 77.4178 29.8909C77.4178 29.8909 77.5291 30.7596 77.596 30.8932C77.6405 31.0046 77.7964 31.0937 77.9524 31.0937H80.9372C81.1822 31.0937 81.3159 30.9155 81.3159 30.715L81.3604 14.0756C81.3604 13.8751 81.1822 13.6969 80.9372 13.6969ZM28.1455 13.6747H23.4009C23.2004 13.6747 23.0222 13.8751 23.0222 14.1202V30.47C23.0222 30.9155 23.3118 31.0714 23.6905 31.0714H27.9673C28.4128 31.0714 28.5241 30.871 28.5241 30.47V14.0533C28.5241 13.8529 28.3459 13.6747 28.1455 13.6747ZM25.8066 6.14571C24.0914 6.14571 22.7326 7.50449 22.7326 9.21966C22.7326 10.9348 24.0914 12.2936 25.8066 12.2936C27.4772 12.2936 28.836 10.9348 28.836 9.21966C28.836 7.50449 27.4772 6.14571 25.8066 6.14571ZM62.5381 5.58884H57.838C57.6376 5.58884 57.4594 5.76704 57.4594 5.96751V15.078H50.0863V5.96751C50.0863 5.76704 49.9081 5.58884 49.7077 5.58884H44.9631C44.7626 5.58884 44.5844 5.76704 44.5844 5.96751V30.715C44.5844 30.9155 44.7849 31.0937 44.9631 31.0937H49.7077C49.9081 31.0937 50.0863 30.9155 50.0863 30.715V20.1344H57.4594L57.4148 30.715C57.4148 30.9155 57.593 31.0937 57.7935 31.0937H62.5381C62.7385 31.0937 62.9167 30.9155 62.9167 30.715V5.96751C62.9167 5.76704 62.7385 5.58884 62.5381 5.58884ZM20.5051 16.5481V29.334C20.5051 29.4231 20.4829 29.579 20.3715 29.6236C20.3715 29.6236 17.5871 31.606 12.9985 31.606C7.45198 31.606 0.880859 29.8686 0.880859 18.4192C0.880859 6.9699 6.62781 4.60874 12.2411 4.63101C17.0971 4.63101 19.0573 5.72249 19.3691 5.92296C19.4582 6.03434 19.5028 6.12344 19.5028 6.23481L18.5672 10.1998C18.5672 10.4002 18.3667 10.6453 18.1217 10.5784C17.3198 10.3334 16.117 9.84338 13.288 9.84338C10.0136 9.84338 6.49416 10.7789 6.49416 18.1519C6.49416 25.525 9.83541 26.3937 12.2411 26.3937C14.2904 26.3937 15.0255 26.1487 15.0255 26.1487V21.0254H11.7511C11.506 21.0254 11.3278 20.8472 11.3278 20.6467V16.5481C11.3278 16.3477 11.506 16.1695 11.7511 16.1695H20.0819C20.3269 16.1695 20.5051 16.3477 20.5051 16.5481Z"></path>
</g>
</svg>
