<svg width="123" height="40" viewBox="0 0 123 40" fill="none" xmlns="http://www.w3.org/2000/svg">
<g clip-path="url(#clip0_183_2)">
<path d="M30.3741 14.1262C30.3741 14.1262 30.6332 15.1513 30.6332 16.9268C30.6332 25.3426 24.5155 31.0338 16.1579 31.0338C6.65545 31.0338 0.201172 23.3542 0.201172 15.4784C0.201172 7.44102 7.06261 0 15.9319 0C22.897 0 26.716 4.22622 26.716 4.22622L23.7406 7.28907C23.7406 7.28907 20.9017 4.23612 16.0839 4.23612C9.83943 4.23612 4.85921 9.16021 4.85921 15.5539C4.85921 22.1173 10.0838 26.8 16.0709 26.8C20.7506 26.8 25.7082 24.2738 26.2099 18.3504H16.0537V14.1262H30.3741ZM98.1101 30.4314V1.03159H102.53V30.4314H98.1101ZM42.1048 11.067C36.2287 11.067 32.0176 15.6336 32.0176 20.9596C32.0176 26.3643 36.1022 31.0157 42.1738 31.0157C47.6702 31.0157 52.1732 26.8396 52.1732 21.0757C52.1732 14.4694 46.9354 11.067 42.1048 11.067ZM42.1632 14.985C45.0528 14.985 47.7911 17.3073 47.7911 21.0493C47.7911 24.712 45.0645 27.1005 42.1499 27.1005C38.9475 27.1005 36.4212 24.5509 36.4212 21.0202C36.4212 17.5653 38.9163 14.985 42.1632 14.985ZM64.043 11.067C58.167 11.067 53.9558 15.6336 53.9558 20.9596C53.9558 26.3643 58.0404 31.0157 64.112 31.0157C69.6085 31.0157 74.1115 26.8396 74.1115 21.0757C74.1115 14.4694 68.8736 11.067 64.043 11.067ZM64.1015 14.985C66.991 14.985 69.7294 17.3073 69.7294 21.0493C69.7294 24.712 67.0027 27.1005 64.0882 27.1005C60.8857 27.1005 58.3594 24.5509 58.3594 21.0202C58.3594 17.5653 60.8545 14.985 64.1015 14.985ZM85.5612 11.0775C80.1677 11.0775 75.9282 15.7733 75.9282 21.0439C75.9282 27.0476 80.8433 31.0289 85.4682 31.0289C88.3281 31.0289 89.8486 29.9005 90.9713 28.6052V30.5721C90.9713 34.0134 88.8694 36.0741 85.6967 36.0741C82.6318 36.0741 81.0945 33.8088 80.5602 32.5232L76.7038 34.1257C78.0719 37.0012 80.8258 40 85.7286 40C91.0911 40 95.1783 36.6424 95.1783 29.6005V11.6773H90.9713V13.3669C89.6778 11.9812 87.9089 11.0775 85.5612 11.0775ZM85.9516 14.9875C88.5959 14.9875 91.3112 17.2321 91.3112 21.0651C91.3112 24.9611 88.6017 27.1083 85.8931 27.1083C83.0177 27.1083 80.3422 24.7874 80.3422 21.102C80.3422 17.2726 83.1211 14.9875 85.9516 14.9875ZM113.884 11.0537C108.796 11.0537 104.524 15.0775 104.524 21.0148C104.524 27.2974 109.286 31.0235 114.373 31.0235C118.618 31.0235 121.224 28.7148 122.779 26.6462L119.31 24.352C118.41 25.7407 116.905 27.0976 114.394 27.0976C111.573 27.0976 110.276 25.5622 109.472 24.0748L122.927 18.5253L122.228 16.8989C120.929 13.714 117.896 11.0537 113.884 11.0537ZM114.059 14.8899C115.892 14.8899 117.212 15.8587 117.772 17.0204L108.787 20.7535C108.4 17.8634 111.154 14.8899 114.059 14.8899Z" fill="black"></path>
</g>
<defs>
<clipPath id="clip0_183_2">
<rect width="123" height="40" fill="black"></rect>
</clipPath>
</defs>
</svg>
