<svg width="189" height="40" viewBox="0 0 189 40" fill="none" xmlns="http://www.w3.org/2000/svg">
<path d="M78.5987 8.00001V32H74.4321V13.1667H74.3765L66.9321 32H64.1543L56.5432 13.1667H56.4876V32H52.6543V8.00001H58.6543L65.5432 25.7778H65.6543L72.9321 8.00001H78.5987ZM82.0432 9.83334C82.0432 9.16667 82.2654 8.61112 82.7654 8.16667C83.2654 7.72223 83.821 7.50001 84.4876 7.50001C85.2099 7.50001 85.821 7.72223 86.2654 8.16667C86.7099 8.61112 86.9876 9.16667 86.9876 9.83334C86.9876 10.5 86.7654 11.0556 86.2654 11.5C85.7654 11.9445 85.2099 12.1667 84.4876 12.1667C83.7654 12.1667 83.2098 11.9445 82.7654 11.5C82.321 11 82.0432 10.4445 82.0432 9.83334ZM86.5432 14.7778V32H82.4876V14.7778H86.5432ZM98.821 29.0556C99.4321 29.0556 100.099 28.9445 100.821 28.6111C101.543 28.3333 102.21 27.9445 102.821 27.5V31.2778C102.154 31.6667 101.432 31.9445 100.599 32.1111C99.7654 32.2778 98.8765 32.3889 97.8765 32.3889C95.321 32.3889 93.2654 31.6111 91.7099 30C90.0987 28.3889 89.321 26.3333 89.321 23.8889C89.321 21.1111 90.1543 18.8333 91.7654 17.0556C93.3765 15.2778 95.6543 14.3889 98.6543 14.3889C99.4321 14.3889 100.21 14.5 100.932 14.6667C101.71 14.8333 102.321 15.1111 102.765 15.3333V19.2222C102.154 18.7778 101.488 18.3889 100.877 18.1667C100.21 17.9445 99.5432 17.7778 98.8765 17.7778C97.2654 17.7778 95.9876 18.2778 94.9876 19.3333C93.9876 20.3889 93.5432 21.7778 93.5432 23.5556C93.5432 25.2778 94.0432 26.6667 94.9876 27.6111C95.9321 28.5556 97.2099 29.0556 98.821 29.0556ZM114.321 14.5C114.654 14.5 114.932 14.5 115.21 14.5556C115.488 14.6111 115.71 14.6667 115.877 14.7222V18.8333C115.654 18.6667 115.377 18.5 114.932 18.3889C114.488 18.2778 114.043 18.1667 113.432 18.1667C112.432 18.1667 111.599 18.6111 110.932 19.4445C110.265 20.2778 109.877 21.5556 109.877 23.3333V32H105.821V14.7778H109.877V17.5H109.932C110.321 16.5556 110.877 15.8333 111.599 15.2778C112.377 14.7778 113.265 14.5 114.321 14.5ZM116.099 23.6667C116.099 20.8333 116.932 18.5556 118.488 16.8889C120.099 15.2222 122.321 14.3889 125.154 14.3889C127.821 14.3889 129.932 15.1667 131.432 16.7778C132.932 18.3889 133.71 20.5556 133.71 23.2778C133.71 26.0556 132.877 28.2778 131.321 29.9445C129.71 31.6111 127.543 32.4445 124.765 32.4445C122.099 32.4445 119.988 31.6667 118.432 30.1111C116.877 28.5 116.099 26.3333 116.099 23.6667ZM120.321 23.5C120.321 25.2778 120.71 26.6667 121.543 27.6111C122.377 28.5556 123.543 29.0556 125.043 29.0556C126.488 29.0556 127.654 28.6111 128.432 27.6111C129.21 26.6667 129.599 25.2778 129.599 23.3889C129.599 21.5556 129.21 20.1667 128.432 19.1667C127.654 18.2222 126.488 17.7222 125.099 17.7222C123.599 17.7222 122.488 18.2222 121.654 19.2222C120.71 20.2778 120.321 21.6667 120.321 23.5ZM139.765 19.3333C139.765 19.8889 139.932 20.3889 140.321 20.7222C140.71 21.0556 141.488 21.4445 142.765 21.9445C144.377 22.6111 145.543 23.3333 146.154 24.1111C146.821 24.9445 147.154 25.8889 147.154 27.0556C147.154 28.6667 146.543 29.9445 145.265 30.9445C144.043 31.9445 142.321 32.3889 140.21 32.3889C139.488 32.3889 138.71 32.2778 137.821 32.1111C136.932 31.9445 136.21 31.7222 135.599 31.4445V27.4445C136.321 27.9445 137.154 28.3889 137.988 28.6667C138.821 28.9445 139.599 29.1111 140.321 29.1111C141.21 29.1111 141.932 29 142.321 28.7222C142.765 28.4445 142.988 28.0556 142.988 27.4445C142.988 26.8889 142.765 26.4445 142.321 26C141.877 25.6111 140.988 25.1667 139.765 24.6667C138.265 24.0556 137.21 23.3333 136.599 22.5556C135.988 21.7778 135.654 20.7778 135.654 19.5556C135.654 18 136.265 16.7222 137.488 15.7222C138.71 14.7222 140.321 14.2222 142.265 14.2222C142.877 14.2222 143.543 14.2778 144.265 14.4445C144.988 14.6111 145.654 14.7778 146.154 14.9445V18.8889C145.599 18.5556 144.988 18.2222 144.265 17.9445C143.543 17.6667 142.821 17.5556 142.154 17.5556C141.377 17.5556 140.765 17.7222 140.377 18C139.988 18.3889 139.765 18.7778 139.765 19.3333ZM148.877 23.6667C148.877 20.8333 149.71 18.5556 151.265 16.8889C152.877 15.2222 155.099 14.3889 157.932 14.3889C160.599 14.3889 162.71 15.1667 164.21 16.7778C165.71 18.3889 166.488 20.5556 166.488 23.2778C166.488 26.0556 165.654 28.2778 164.099 29.9445C162.488 31.6111 160.321 32.4445 157.543 32.4445C154.877 32.4445 152.765 31.6667 151.21 30.1111C149.71 28.5 148.877 26.3333 148.877 23.6667ZM153.099 23.5C153.099 25.2778 153.488 26.6667 154.321 27.6111C155.154 28.5556 156.321 29.0556 157.821 29.0556C159.265 29.0556 160.432 28.6111 161.21 27.6111C161.988 26.6667 162.377 25.2778 162.377 23.3889C162.377 21.5556 161.988 20.1667 161.21 19.1667C160.432 18.2222 159.265 17.7222 157.877 17.7222C156.377 17.7222 155.265 18.2222 154.432 19.2222C153.543 20.2778 153.099 21.6667 153.099 23.5ZM179.988 18.1111H173.932V32H169.821V18.1111H166.932V14.7778H169.821V12.3889C169.821 10.6111 170.432 9.11112 171.599 7.94445C172.765 6.77778 174.265 6.22223 176.099 6.22223C176.599 6.22223 177.043 6.27778 177.432 6.27778C177.821 6.27778 178.154 6.3889 178.432 6.50001V10C178.321 9.94445 178.043 9.83334 177.71 9.72223C177.377 9.61112 176.988 9.55556 176.543 9.55556C175.71 9.55556 175.043 9.83334 174.599 10.3333C174.154 10.8333 173.932 11.6667 173.932 12.6667V14.7222H179.988V10.8333L184.043 9.61112V14.7222H188.154V18.0556H184.043V26.1111C184.043 27.1667 184.265 27.8889 184.599 28.3333C184.988 28.7778 185.599 29 186.432 29C186.654 29 186.932 28.9445 187.265 28.8333C187.599 28.7222 187.877 28.6111 188.099 28.4445V31.7778C187.821 31.9445 187.432 32.0556 186.821 32.1667C186.21 32.2778 185.654 32.3333 185.043 32.3333C183.321 32.3333 182.043 31.8889 181.21 31C180.377 30.1111 179.932 28.7222 179.932 26.8889L179.988 18.1111Z" fill="#0B0B0B"></path>
<path d="M19.5986 0H0.598633V19H19.5986V0Z" fill="#0B0B0B"></path>
<path d="M40.5986 0H21.5986V19H40.5986V0Z" fill="#0B0B0B"></path>
<path d="M19.5986 21H0.598633V40H19.5986V21Z" fill="#0B0B0B"></path>
<path d="M40.5986 21H21.5986V40H40.5986V21Z" fill="#0B0B0B"></path>
</svg>
